<svg width="120" height="120" viewBox="0 0 120 120" fill="none" xmlns="http://www.w3.org/2000/svg">
    <g id="log-out">
        <path d="M4.66666 3.99996C4.84347 3.99996 5.01304 3.92972 5.13806 3.8047C5.26309 3.67967 5.33332 3.5101 5.33332 3.33329C5.33332 3.15648 5.26309 2.98691 5.13806 2.86189C5.01304 2.73686 4.84347 2.66663 4.66666 2.66663H3.33332C3.15651 2.66663 2.98694 2.73686 2.86192 2.86189C2.73689 2.98691 2.66666 3.15648 2.66666 3.33329V12.6666C2.66666 12.8434 2.73689 13.013 2.86192 13.138C2.98694 13.2631 3.15651 13.3333 3.33332 13.3333H4.66666C4.84347 13.3333 5.01304 13.2631 5.13806 13.138C5.26309 13.013 5.33332 12.8434 5.33332 12.6666C5.33332 12.4898 5.26309 12.3202 5.13806 12.1952C5.01304 12.0702 4.84347 12 4.66666 12H3.99999V3.99996H4.66666Z"
              fill="white"/>
        <path d="M13.88 7.61338L12 4.94672C11.898 4.80299 11.7433 4.70548 11.5697 4.67549C11.396 4.64551 11.2176 4.6855 11.0733 4.78672C11.0012 4.83724 10.9399 4.90154 10.8927 4.97592C10.8456 5.05029 10.8137 5.13326 10.7988 5.22004C10.784 5.30681 10.7864 5.39568 10.8061 5.4815C10.8257 5.56732 10.8622 5.64839 10.9133 5.72005L12.06 7.33338H6.66667C6.48986 7.33338 6.32029 7.40362 6.19526 7.52864C6.07024 7.65367 6 7.82324 6 8.00005C6 8.17686 6.07024 8.34643 6.19526 8.47145C6.32029 8.59648 6.48986 8.66672 6.66667 8.66672H12L10.8 10.2667C10.7475 10.3368 10.7093 10.4165 10.6875 10.5013C10.6658 10.5861 10.661 10.6743 10.6734 10.761C10.6857 10.8477 10.7151 10.931 10.7597 11.0064C10.8043 11.0817 10.8633 11.1475 10.9333 11.2C11.0487 11.2866 11.1891 11.3334 11.3333 11.3334C11.4368 11.3334 11.5389 11.3093 11.6315 11.263C11.724 11.2167 11.8046 11.1495 11.8667 11.0667L13.8667 8.40005C13.952 8.28729 13.9994 8.15031 14.0018 8.00889C14.0041 7.86748 13.9615 7.72897 13.88 7.61338Z"
              fill="white"/>
    </g>
    <g id="magnifier">
        <path id="Vector"
              d="M17.2583 16.075L14.425 13.25C15.3392 12.0854 15.8352 10.6472 15.8333 9.16667C15.8333 7.84813 15.4423 6.5592 14.7098 5.46287C13.9773 4.36654 12.9361 3.51206 11.7179 3.00747C10.4997 2.50289 9.15927 2.37087 7.86607 2.6281C6.57286 2.88534 5.38497 3.52027 4.45262 4.45262C3.52027 5.38497 2.88534 6.57286 2.6281 7.86607C2.37087 9.15927 2.50289 10.4997 3.00747 11.7179C3.51206 12.9361 4.36654 13.9773 5.46287 14.7098C6.5592 15.4423 7.84813 15.8333 9.16667 15.8333C10.6472 15.8352 12.0854 15.3392 13.25 14.425L16.075 17.2583C16.1525 17.3364 16.2446 17.3984 16.3462 17.4407C16.4477 17.4831 16.5567 17.5048 16.6667 17.5048C16.7767 17.5048 16.8856 17.4831 16.9871 17.4407C17.0887 17.3984 17.1809 17.3364 17.2583 17.2583C17.3364 17.1809 17.3984 17.0887 17.4407 16.9871C17.4831 16.8856 17.5048 16.7767 17.5048 16.6667C17.5048 16.5567 17.4831 16.4477 17.4407 16.3462C17.3984 16.2446 17.3364 16.1525 17.2583 16.075ZM4.16667 9.16667C4.16667 8.17776 4.45991 7.21106 5.00932 6.38882C5.55873 5.56657 6.33962 4.92571 7.25325 4.54727C8.16688 4.16883 9.17222 4.06982 10.1421 4.26274C11.112 4.45567 12.0029 4.93187 12.7022 5.63114C13.4015 6.3304 13.8777 7.22131 14.0706 8.19122C14.2635 9.16112 14.1645 10.1665 13.7861 11.0801C13.4076 11.9937 12.7668 12.7746 11.9445 13.324C11.1223 13.8734 10.1556 14.1667 9.16667 14.1667C7.84059 14.1667 6.56882 13.6399 5.63114 12.7022C4.69345 11.7645 4.16667 10.4928 4.16667 9.16667Z"
              fill="#808080"/>
    </g>
    <g id="eye">
        <path id="Vector"
              d="M18.225 9.58334C17.6917 8.65834 14.7583 4.01667 9.77501 4.16667C5.16667 4.28334 2.50001 8.33334 1.77501 9.58334C1.70187 9.71002 1.66336 9.85372 1.66336 10C1.66336 10.1463 1.70187 10.29 1.77501 10.4167C2.30001 11.325 5.10834 15.8333 10.0167 15.8333H10.225C14.8333 15.7167 17.5083 11.6667 18.225 10.4167C18.2981 10.29 18.3367 10.1463 18.3367 10C18.3367 9.85372 18.2981 9.71002 18.225 9.58334ZM10.1833 14.1667C6.59167 14.25 4.25001 11.175 3.51667 10C4.35001 8.65834 6.52501 5.91667 9.85834 5.83334C13.4333 5.74167 15.7833 8.82501 16.525 10C15.6667 11.3417 13.5167 14.0833 10.1833 14.1667Z"
              fill="white"/>
        <path id="Vector_2"
              d="M10 7.08334C9.42315 7.08334 8.85924 7.2544 8.3796 7.57489C7.89995 7.89538 7.52612 8.3509 7.30536 8.88385C7.08461 9.4168 7.02685 10.0032 7.13939 10.569C7.25193 11.1348 7.52971 11.6545 7.93762 12.0624C8.34552 12.4703 8.86522 12.7481 9.431 12.8606C9.99678 12.9732 10.5832 12.9154 11.1162 12.6947C11.6491 12.4739 12.1046 12.1001 12.4251 11.6204C12.7456 11.1408 12.9167 10.5769 12.9167 10C12.9167 9.22646 12.6094 8.4846 12.0624 7.93762C11.5154 7.39063 10.7736 7.08334 10 7.08334ZM10 11.25C9.75279 11.25 9.51111 11.1767 9.30555 11.0393C9.09999 10.902 8.93977 10.7068 8.84516 10.4784C8.75055 10.25 8.7258 9.99862 8.77403 9.75615C8.82226 9.51367 8.94131 9.29094 9.11613 9.11613C9.29094 8.94131 9.51367 8.82226 9.75615 8.77403C9.99862 8.7258 10.25 8.75055 10.4784 8.84516C10.7068 8.93977 10.902 9.09999 11.0393 9.30555C11.1767 9.51111 11.25 9.75278 11.25 10C11.25 10.3315 11.1183 10.6495 10.8839 10.8839C10.6495 11.1183 10.3315 11.25 10 11.25Z"
              fill="white"/>
    </g>
    <g id="cross">
        <path id="Vector" d="M8.94 7.99998L11.8067 5.13998C11.9322 5.01445 12.0027 4.84418 12.0027 4.66665C12.0027 4.48911 11.9322 4.31885 11.8067 4.19331C11.6811 4.06778 11.5109 3.99725 11.3333 3.99725C11.1558 3.99725 10.9855 4.06778 10.86 4.19331L8 7.05998L5.14 4.19331C5.01446 4.06778 4.8442 3.99725 4.66667 3.99725C4.48913 3.99725 4.31887 4.06778 4.19333 4.19331C4.0678 4.31885 3.99727 4.48911 3.99727 4.66665C3.99727 4.84418 4.0678 5.01445 4.19333 5.13998L7.06 7.99998L4.19333 10.86C4.13085 10.922 4.08125 10.9957 4.04741 11.0769C4.01356 11.1582 3.99613 11.2453 3.99613 11.3333C3.99613 11.4213 4.01356 11.5085 4.04741 11.5897C4.08125 11.6709 4.13085 11.7447 4.19333 11.8066C4.25531 11.8691 4.32904 11.9187 4.41028 11.9526C4.49152 11.9864 4.57866 12.0038 4.66667 12.0038C4.75467 12.0038 4.84181 11.9864 4.92305 11.9526C5.00429 11.9187 5.07802 11.8691 5.14 11.8066L8 8.93998L10.86 11.8066C10.922 11.8691 10.9957 11.9187 11.0769 11.9526C11.1582 11.9864 11.2453 12.0038 11.3333 12.0038C11.4213 12.0038 11.5085 11.9864 11.5897 11.9526C11.671 11.9187 11.7447 11.8691 11.8067 11.8066C11.8692 11.7447 11.9187 11.6709 11.9526 11.5897C11.9864 11.5085 12.0039 11.4213 12.0039 11.3333C12.0039 11.2453 11.9864 11.1582 11.9526 11.0769C11.9187 10.9957 11.8692 10.922 11.8067 10.86L8.94 7.99998Z" fill="white"/>
    </g>
</svg>