<svg width="120" height="120" viewBox="0 0 120 120" fill="none" xmlns="http://www.w3.org/2000/svg">
    <g id="log-out">
        <path d="M4.66666 3.99996C4.84347 3.99996 5.01304 3.92972 5.13806 3.8047C5.26309 3.67967 5.33332 3.5101 5.33332 3.33329C5.33332 3.15648 5.26309 2.98691 5.13806 2.86189C5.01304 2.73686 4.84347 2.66663 4.66666 2.66663H3.33332C3.15651 2.66663 2.98694 2.73686 2.86192 2.86189C2.73689 2.98691 2.66666 3.15648 2.66666 3.33329V12.6666C2.66666 12.8434 2.73689 13.013 2.86192 13.138C2.98694 13.2631 3.15651 13.3333 3.33332 13.3333H4.66666C4.84347 13.3333 5.01304 13.2631 5.13806 13.138C5.26309 13.013 5.33332 12.8434 5.33332 12.6666C5.33332 12.4898 5.26309 12.3202 5.13806 12.1952C5.01304 12.0702 4.84347 12 4.66666 12H3.99999V3.99996H4.66666Z"
              fill="white"/>
        <path d="M13.88 7.61338L12 4.94672C11.898 4.80299 11.7433 4.70548 11.5697 4.67549C11.396 4.64551 11.2176 4.6855 11.0733 4.78672C11.0012 4.83724 10.9399 4.90154 10.8927 4.97592C10.8456 5.05029 10.8137 5.13326 10.7988 5.22004C10.784 5.30681 10.7864 5.39568 10.8061 5.4815C10.8257 5.56732 10.8622 5.64839 10.9133 5.72005L12.06 7.33338H6.66667C6.48986 7.33338 6.32029 7.40362 6.19526 7.52864C6.07024 7.65367 6 7.82324 6 8.00005C6 8.17686 6.07024 8.34643 6.19526 8.47145C6.32029 8.59648 6.48986 8.66672 6.66667 8.66672H12L10.8 10.2667C10.7475 10.3368 10.7093 10.4165 10.6875 10.5013C10.6658 10.5861 10.661 10.6743 10.6734 10.761C10.6857 10.8477 10.7151 10.931 10.7597 11.0064C10.8043 11.0817 10.8633 11.1475 10.9333 11.2C11.0487 11.2866 11.1891 11.3334 11.3333 11.3334C11.4368 11.3334 11.5389 11.3093 11.6315 11.263C11.724 11.2167 11.8046 11.1495 11.8667 11.0667L13.8667 8.40005C13.952 8.28729 13.9994 8.15031 14.0018 8.00889C14.0041 7.86748 13.9615 7.72897 13.88 7.61338Z"
              fill="white"/>
    </g>
    <g id="magnifier">
        <path id="Vector"
              d="M17.2583 16.075L14.425 13.25C15.3392 12.0854 15.8352 10.6472 15.8333 9.16667C15.8333 7.84813 15.4423 6.5592 14.7098 5.46287C13.9773 4.36654 12.9361 3.51206 11.7179 3.00747C10.4997 2.50289 9.15927 2.37087 7.86607 2.6281C6.57286 2.88534 5.38497 3.52027 4.45262 4.45262C3.52027 5.38497 2.88534 6.57286 2.6281 7.86607C2.37087 9.15927 2.50289 10.4997 3.00747 11.7179C3.51206 12.9361 4.36654 13.9773 5.46287 14.7098C6.5592 15.4423 7.84813 15.8333 9.16667 15.8333C10.6472 15.8352 12.0854 15.3392 13.25 14.425L16.075 17.2583C16.1525 17.3364 16.2446 17.3984 16.3462 17.4407C16.4477 17.4831 16.5567 17.5048 16.6667 17.5048C16.7767 17.5048 16.8856 17.4831 16.9871 17.4407C17.0887 17.3984 17.1809 17.3364 17.2583 17.2583C17.3364 17.1809 17.3984 17.0887 17.4407 16.9871C17.4831 16.8856 17.5048 16.7767 17.5048 16.6667C17.5048 16.5567 17.4831 16.4477 17.4407 16.3462C17.3984 16.2446 17.3364 16.1525 17.2583 16.075ZM4.16667 9.16667C4.16667 8.17776 4.45991 7.21106 5.00932 6.38882C5.55873 5.56657 6.33962 4.92571 7.25325 4.54727C8.16688 4.16883 9.17222 4.06982 10.1421 4.26274C11.112 4.45567 12.0029 4.93187 12.7022 5.63114C13.4015 6.3304 13.8777 7.22131 14.0706 8.19122C14.2635 9.16112 14.1645 10.1665 13.7861 11.0801C13.4076 11.9937 12.7668 12.7746 11.9445 13.324C11.1223 13.8734 10.1556 14.1667 9.16667 14.1667C7.84059 14.1667 6.56882 13.6399 5.63114 12.7022C4.69345 11.7645 4.16667 10.4928 4.16667 9.16667Z"
              fill="#808080"/>
    </g>
    <g id="open_eye">
        <path d="M21.87 11.5C21.23 10.39 17.71 4.81999 11.73 4.99999C6.2 5.13999 3 9.99999 2.13 11.5C2.04223 11.652 1.99603 11.8245 1.99603 12C1.99603 12.1755 2.04223 12.348 2.13 12.5C2.76 13.59 6.13 19 12.02 19H12.27C17.8 18.86 21.01 14 21.87 12.5C21.9578 12.348 22.004 12.1755 22.004 12C22.004 11.8245 21.9578 11.652 21.87 11.5ZM12.22 17C7.91 17.1 5.1 13.41 4.22 12C5.22 10.39 7.83 7.09999 11.83 6.99999C16.12 6.88999 18.94 10.59 19.83 12C18.8 13.61 16.22 16.9 12.22 17Z" fill="white"/>
        <path d="M12 8.5C11.3078 8.5 10.6311 8.70527 10.0555 9.08986C9.47993 9.47444 9.03133 10.0211 8.76642 10.6606C8.50152 11.3001 8.4322 12.0039 8.56725 12.6828C8.7023 13.3618 9.03564 13.9854 9.52513 14.4749C10.0146 14.9644 10.6383 15.2977 11.3172 15.4327C11.9961 15.5678 12.6999 15.4985 13.3394 15.2336C13.9789 14.9687 14.5256 14.5201 14.9101 13.9445C15.2947 13.3689 15.5 12.6922 15.5 12C15.5 11.0717 15.1313 10.1815 14.4749 9.52513C13.8185 8.86875 12.9283 8.5 12 8.5ZM12 13.5C11.7033 13.5 11.4133 13.412 11.1666 13.2472C10.92 13.0824 10.7277 12.8481 10.6142 12.574C10.5007 12.2999 10.4709 11.9983 10.5288 11.7074C10.5867 11.4164 10.7296 11.1491 10.9393 10.9393C11.1491 10.7296 11.4164 10.5867 11.7074 10.5288C11.9983 10.4709 12.2999 10.5006 12.574 10.6142C12.8481 10.7277 13.0824 10.92 13.2472 11.1666C13.412 11.4133 13.5 11.7033 13.5 12C13.5 12.3978 13.342 12.7794 13.0607 13.0607C12.7794 13.342 12.3978 13.5 12 13.5Z" fill="white"/>
    </g>
    <g id="close_eye">
    <path d="M4.71 3.29C4.61676 3.19676 4.50607 3.1228 4.38425 3.07234C4.26243 3.02188 4.13186 2.99591 4 2.99591C3.86814 2.99591 3.73757 3.02188 3.61575 3.07234C3.49393 3.1228 3.38324 3.19676 3.29 3.29C3.10169 3.47831 2.99591 3.7337 2.99591 4C2.99591 4.2663 3.10169 4.5217 3.29 4.71L8.92 10.34C8.5638 11.0026 8.43058 11.7624 8.54009 12.5067C8.64959 13.2509 8.99599 13.9401 9.52794 14.4721C10.0599 15.004 10.7491 15.3504 11.4934 15.4599C12.2376 15.5694 12.9974 15.4362 13.66 15.08L19.29 20.71C19.383 20.8037 19.4936 20.8781 19.6154 20.9289C19.7373 20.9797 19.868 21.0058 20 21.0058C20.132 21.0058 20.2627 20.9797 20.3846 20.9289C20.5064 20.8781 20.617 20.8037 20.71 20.71C20.8037 20.617 20.8781 20.5064 20.9289 20.3846C20.9797 20.2627 21.0058 20.132 21.0058 20C21.0058 19.868 20.9797 19.7373 20.9289 19.6154C20.8781 19.4936 20.8037 19.383 20.71 19.29L4.71 3.29ZM12 13.5C11.6022 13.5 11.2206 13.342 10.9393 13.0607C10.658 12.7794 10.5 12.3978 10.5 12V11.93L12.06 13.49L12 13.5Z" fill="white"/>
    <path d="M12.22 17C7.92 17.1 5.1 13.41 4.22 12C4.84647 11.0007 5.59936 10.0865 6.46 9.27999L5 7.87C3.87133 8.93347 2.90441 10.1564 2.13 11.5C2.04223 11.652 1.99603 11.8245 1.99603 12C1.99603 12.1755 2.04223 12.348 2.13 12.5C2.76 13.59 6.13 19 12.02 19H12.27C13.3775 18.9671 14.4708 18.7404 15.5 18.33L13.92 16.75C13.3644 16.8962 12.7942 16.98 12.22 17Z" fill="white"/>
    <path d="M21.87 11.5C21.23 10.39 17.7 4.81999 11.73 4.99999C10.6225 5.03285 9.52924 5.25961 8.5 5.66999L10.08 7.24999C10.6356 7.10382 11.2058 7.01997 11.78 6.99999C16.07 6.88999 18.89 10.59 19.78 12C19.1381 13.0023 18.3682 13.9167 17.49 14.72L19 16.13C20.1428 15.0693 21.1234 13.8462 21.91 12.5C21.9918 12.3445 22.0311 12.1702 22.0241 11.9946C22.0171 11.8191 21.9639 11.6485 21.87 11.5Z" fill="white"/>

    </g>
    <g id="cross">
    <path d="M13.41 12L17.71 7.71C17.8983 7.5217 18.0041 7.2663 18.0041 7C18.0041 6.7337 17.8983 6.47831 17.71 6.29C17.5217 6.1017 17.2663 5.99591 17 5.99591C16.7337 5.99591 16.4783 6.1017 16.29 6.29L12 10.59L7.71 6.29C7.5217 6.1017 7.2663 5.99591 7 5.99591C6.7337 5.99591 6.4783 6.1017 6.29 6.29C6.1017 6.47831 5.99591 6.7337 5.99591 7C5.99591 7.2663 6.1017 7.5217 6.29 7.71L10.59 12L6.29 16.29C6.19627 16.383 6.12188 16.4936 6.07111 16.6154C6.02034 16.7373 5.9942 16.868 5.9942 17C5.9942 17.132 6.02034 17.2627 6.07111 17.3846C6.12188 17.5064 6.19627 17.617 6.29 17.71C6.38296 17.8037 6.49356 17.8781 6.61542 17.9289C6.73728 17.9797 6.86799 18.0058 7 18.0058C7.13201 18.0058 7.26272 17.9797 7.38458 17.9289C7.50644 17.8781 7.61704 17.8037 7.71 17.71L12 13.41L16.29 17.71C16.383 17.8037 16.4936 17.8781 16.6154 17.9289C16.7373 17.9797 16.868 18.0058 17 18.0058C17.132 18.0058 17.2627 17.9797 17.3846 17.9289C17.5064 17.8781 17.617 17.8037 17.71 17.71C17.8037 17.617 17.8781 17.5064 17.9289 17.3846C17.9797 17.2627 18.0058 17.132 18.0058 17C18.0058 16.868 17.9797 16.7373 17.9289 16.6154C17.8781 16.4936 17.8037 16.383 17.71 16.29L13.41 12Z" fill="white"/>

    </g>
    <g id="incubator">
        <path d="M70.9892 24.716C69.7047 24.716 68.5403 24.4392 67.4959 23.8856C66.4636 23.32 65.6473 22.5438 65.047 21.5569C64.4588 20.5581 64.1647 19.4329 64.1647 18.1813C64.1647 16.9297 64.4588 15.8105 65.047 14.8237C65.6473 13.8249 66.4636 13.0487 67.4959 12.4951C68.5403 11.9295 69.7107 11.6467 71.0072 11.6467C72.0996 11.6467 73.0839 11.8392 73.9602 12.2243C74.8485 12.6094 75.5928 13.163 76.193 13.885L74.3203 15.618C73.468 14.6312 72.4117 14.1378 71.1512 14.1378C70.3709 14.1378 69.6747 14.3123 69.0625 14.6613C68.4503 14.9982 67.9701 15.4736 67.622 16.0873C67.2858 16.7011 67.1178 17.3991 67.1178 18.1813C67.1178 18.9635 67.2858 19.6615 67.622 20.2753C67.9701 20.889 68.4503 21.3704 69.0625 21.7194C69.6747 22.0564 70.3709 22.2248 71.1512 22.2248C72.4117 22.2248 73.468 21.7254 74.3203 20.7266L76.193 22.4595C75.5928 23.1936 74.8485 23.7532 73.9602 24.1383C73.0719 24.5234 72.0815 24.716 70.9892 24.716Z"
              fill="white"/>
        <path d="M83.6574 24.716C81.8567 24.716 80.4522 24.2165 79.4439 23.2177C78.4475 22.2188 77.9493 20.7928 77.9493 18.9395V11.8633H80.8664V18.8312C80.8664 21.0936 81.8027 22.2248 83.6754 22.2248C84.5877 22.2248 85.2839 21.9541 85.7641 21.4125C86.2443 20.8589 86.4844 19.9985 86.4844 18.8312V11.8633H89.3654V18.9395C89.3654 20.7928 88.8612 22.2188 87.8529 23.2177C86.8565 24.2165 85.458 24.716 83.6574 24.716Z"
              fill="white"/>
        <path d="M101.503 17.9286C102.224 18.1572 102.788 18.5423 103.196 19.0839C103.604 19.6134 103.808 20.2693 103.808 21.0515C103.808 22.1587 103.376 23.0131 102.512 23.6148C101.659 24.2045 100.411 24.4993 98.7663 24.4993H92.248V11.8633H98.4062C99.9427 11.8633 101.119 12.1581 101.935 12.7478C102.764 13.3375 103.178 14.1378 103.178 15.1486C103.178 15.7624 103.028 16.31 102.728 16.7913C102.44 17.2727 102.031 17.6518 101.503 17.9286ZM95.147 14.0656V17.0441H98.046C98.7663 17.0441 99.3125 16.9177 99.6846 16.665C100.057 16.4123 100.243 16.0392 100.243 15.5458C100.243 15.0524 100.057 14.6853 99.6846 14.4446C99.3125 14.1919 98.7663 14.0656 98.046 14.0656H95.147ZM98.5502 22.297C99.3185 22.297 99.8947 22.1707 100.279 21.918C100.675 21.6652 100.873 21.2741 100.873 20.7446C100.873 19.6976 100.099 19.1741 98.5502 19.1741H95.147V22.297H98.5502Z"
              fill="white"/>
        <path d="M114.317 21.7916H108.465L107.349 24.4993H104.36L109.978 11.8633H112.859L118.495 24.4993H115.434L114.317 21.7916ZM113.399 19.5713L111.4 14.7335L109.402 19.5713H113.399Z"
              fill="white"/>
        <path d="M121.781 14.2461H117.747V11.8633H128.731V14.2461H124.698V24.4993H121.781V14.2461Z" fill="white"/>
        <path d="M136.229 24.716C134.92 24.716 133.738 24.4331 132.682 23.8675C131.637 23.3019 130.815 22.5257 130.215 21.5389C129.627 20.54 129.332 19.4208 129.332 18.1813C129.332 16.9418 129.627 15.8286 130.215 14.8418C130.815 13.8429 131.637 13.0607 132.682 12.4951C133.738 11.9295 134.92 11.6467 136.229 11.6467C137.537 11.6467 138.714 11.9295 139.758 12.4951C140.802 13.0607 141.625 13.8429 142.225 14.8418C142.825 15.8286 143.125 16.9418 143.125 18.1813C143.125 19.4208 142.825 20.54 142.225 21.5389C141.625 22.5257 140.802 23.3019 139.758 23.8675C138.714 24.4331 137.537 24.716 136.229 24.716ZM136.229 22.2248C136.973 22.2248 137.645 22.0564 138.246 21.7194C138.846 21.3704 139.314 20.889 139.65 20.2753C139.998 19.6615 140.172 18.9635 140.172 18.1813C140.172 17.3991 139.998 16.7011 139.65 16.0873C139.314 15.4736 138.846 14.9982 138.246 14.6613C137.645 14.3123 136.973 14.1378 136.229 14.1378C135.485 14.1378 134.812 14.3123 134.212 14.6613C133.612 14.9982 133.138 15.4736 132.79 16.0873C132.454 16.7011 132.285 17.3991 132.285 18.1813C132.285 18.9635 132.454 19.6615 132.79 20.2753C133.138 20.889 133.612 21.3704 134.212 21.7194C134.812 22.0564 135.485 22.2248 136.229 22.2248Z"
              fill="white"/>
        <path d="M153.348 24.4993L150.918 20.9793H150.774H148.235V24.4993H145.318V11.8633H150.774C151.89 11.8633 152.856 12.0498 153.673 12.4229C154.501 12.7959 155.137 13.3254 155.581 14.0114C156.025 14.6974 156.247 15.5097 156.247 16.4484C156.247 17.387 156.019 18.1994 155.563 18.8853C155.119 19.5592 154.483 20.0767 153.655 20.4377L156.482 24.4993H153.348ZM153.294 16.4484C153.294 15.7383 153.066 15.1968 152.61 14.8237C152.154 14.4386 151.488 14.2461 150.611 14.2461H148.235V18.6506H150.611C151.488 18.6506 152.154 18.4581 152.61 18.073C153.066 17.6879 153.294 17.1463 153.294 16.4484Z"
              fill="white"/>
        <path d="M0 11.8784H2.91247V24.4724H0V11.8784Z" fill="white"/>
        <path d="M8.50595 14.2532H4.47883V11.8784H15.4455V14.2532H11.4184V24.4724H8.50595V14.2532Z" fill="white"/>
        <path d="M33.7412 11.8784H36.6578V24.4724H33.7412V11.8784Z" fill="white"/>
        <path d="M51.2066 11.8784V24.4724H48.8122L42.529 16.826V24.4724H39.6485V11.8784H42.061L48.3261 19.5248V11.8784H51.2066Z"
              fill="white"/>
        <path fill-rule="evenodd" clip-rule="evenodd"
              d="M34.9871 6.53499C36.0696 6.53499 36.9474 7.41279 36.9474 8.49538C36.9474 9.57798 36.0696 10.4558 34.9871 10.4558C33.9045 10.4558 33.0266 9.57798 33.0266 8.49538C33.0266 7.41279 33.9045 6.53499 34.9871 6.53499Z"
              fill="#FF0808"/>
        <path fill-rule="evenodd" clip-rule="evenodd"
              d="M19.4921 16.0372C20.6078 16.0372 21.512 16.9147 21.512 17.9976C21.512 19.0805 20.6078 19.958 19.4921 19.958C18.3765 19.958 17.4724 19.0805 17.4724 17.9976C17.4724 16.9147 18.3765 16.0372 19.4921 16.0372Z"
              fill="white"/>
        <path fill-rule="evenodd" clip-rule="evenodd"
              d="M42.4778 34.5C51.5905 34.5 58.9778 27.1127 58.9778 18C58.9778 8.8873 51.5905 1.5 42.4778 1.5C33.3651 1.5 25.9778 8.8873 25.9778 18C25.9778 27.1127 33.3651 34.5 42.4778 34.5ZM42.4778 36C52.419 36 60.4778 27.9411 60.4778 18C60.4778 8.05887 52.419 0 42.4778 0C32.5367 0 24.4778 8.05887 24.4778 18C24.4778 27.9411 32.5367 36 42.4778 36Z"
              fill="white"/>
    </g>
    <g id="user">
        <path d="M7.99998 7.33431C8.5274 7.33431 9.04297 7.17791 9.4815 6.8849C9.92003 6.59188 10.2618 6.1754 10.4637 5.68813C10.6655 5.20086 10.7183 4.66469 10.6154 4.1474C10.5125 3.63012 10.2585 3.15497 9.8856 2.78203C9.51266 2.40909 9.0375 2.15511 8.52022 2.05222C8.00294 1.94932 7.46676 2.00213 6.97949 2.20397C6.49222 2.4058 6.07574 2.74759 5.78273 3.18612C5.48971 3.62465 5.33331 4.14023 5.33331 4.66764C5.33331 5.37489 5.61426 6.05317 6.11436 6.55326C6.61446 7.05336 7.29274 7.33431 7.99998 7.33431ZM7.99998 3.33431C8.26369 3.33431 8.52147 3.41251 8.74074 3.55902C8.96001 3.70553 9.1309 3.91376 9.23182 4.1574C9.33274 4.40103 9.35914 4.66912 9.30769 4.92776C9.25625 5.18641 9.12926 5.42398 8.94279 5.61045C8.75632 5.79692 8.51874 5.92391 8.2601 5.97536C8.00146 6.0268 7.73337 6.0004 7.48974 5.89948C7.2461 5.79857 7.03786 5.62767 6.89135 5.4084C6.74485 5.18914 6.66665 4.93135 6.66665 4.66764C6.66665 4.31402 6.80712 3.97488 7.05717 3.72484C7.30722 3.47479 7.64636 3.33431 7.99998 3.33431Z"
              fill="white"/>
        <path d="M7.99998 8.66748C6.7623 8.66748 5.57532 9.15915 4.70015 10.0343C3.82498 10.9095 3.33331 12.0965 3.33331 13.3341C3.33331 13.511 3.40355 13.6805 3.52858 13.8056C3.6536 13.9306 3.82317 14.0008 3.99998 14.0008C4.17679 14.0008 4.34636 13.9306 4.47138 13.8056C4.59641 13.6805 4.66665 13.511 4.66665 13.3341C4.66665 12.4501 5.01784 11.6022 5.64296 10.9771C6.26808 10.352 7.11592 10.0008 7.99998 10.0008C8.88403 10.0008 9.73188 10.352 10.357 10.9771C10.9821 11.6022 11.3333 12.4501 11.3333 13.3341C11.3333 13.511 11.4036 13.6805 11.5286 13.8056C11.6536 13.9306 11.8232 14.0008 12 14.0008C12.1768 14.0008 12.3464 13.9306 12.4714 13.8056C12.5964 13.6805 12.6666 13.511 12.6666 13.3341C12.6666 12.0965 12.175 10.9095 11.2998 10.0343C10.4246 9.15915 9.23766 8.66748 7.99998 8.66748Z"
              fill="white"/>
    </g>
    <g id="learn">
        <path d="M8 1.33447C6.68146 1.33447 5.39252 1.72547 4.2962 2.45801C3.19987 3.19055 2.34539 4.23174 1.8408 5.44992C1.33622 6.66809 1.20419 8.00853 1.46143 9.30174C1.71866 10.5949 2.3536 11.7828 3.28595 12.7152C4.2183 13.6475 5.40619 14.2825 6.6994 14.5397C7.9926 14.7969 9.33305 14.6649 10.5512 14.1603C11.7694 13.6558 12.8106 12.8013 13.5431 11.7049C14.2757 10.6086 14.6667 9.31968 14.6667 8.00114C14.6667 7.12566 14.4942 6.25875 14.1592 5.44992C13.8242 4.64108 13.3331 3.90615 12.714 3.28709C12.095 2.66804 11.3601 2.17697 10.5512 1.84194C9.74238 1.50691 8.87548 1.33447 8 1.33447ZM8 13.3345C6.94516 13.3345 5.91402 13.0217 5.03696 12.4356C4.15989 11.8496 3.47631 11.0167 3.07264 10.0421C2.66897 9.06758 2.56336 7.99522 2.76914 6.96066C2.97493 5.92609 3.48288 4.97578 4.22876 4.2299C4.97464 3.48402 5.92495 2.97607 6.95952 2.77028C7.99408 2.5645 9.06644 2.67011 10.041 3.07378C11.0155 3.47745 11.8485 4.16104 12.4345 5.0381C13.0205 5.91516 13.3333 6.94631 13.3333 8.00114C13.3333 9.41563 12.7714 10.7722 11.7712 11.7724C10.771 12.7726 9.41449 13.3345 8 13.3345Z"
              fill="white"/>
        <path d="M8.22666 4.9674C8.06331 4.81687 7.85932 4.71765 7.64004 4.68209C7.42077 4.64654 7.19588 4.6762 6.99333 4.7674C6.7967 4.84694 6.62825 4.9833 6.5095 5.15905C6.39075 5.3348 6.32709 5.54196 6.32666 5.75407V10.2474C6.32709 10.4595 6.39075 10.6667 6.5095 10.8424C6.62825 11.0182 6.7967 11.1545 6.99333 11.2341C7.13784 11.2996 7.29464 11.3337 7.45333 11.3341C7.73927 11.3328 8.01467 11.226 8.22666 11.0341L10.6667 8.7874C10.7758 8.68747 10.8629 8.56593 10.9226 8.43049C10.9822 8.29506 11.013 8.14871 11.013 8.00074C11.013 7.85276 10.9822 7.70641 10.9226 7.57098C10.8629 7.43555 10.7758 7.314 10.6667 7.21407L8.22666 4.9674ZM7.66666 9.73407V6.2674L9.53999 8.00074L7.66666 9.73407Z"
              fill="white"/>
    </g>
    <g id="delete">
        <path d="M14 4.00108H10.6667V2.88775C10.651 2.46096 10.4668 2.05779 10.1544 1.76661C9.84195 1.47543 9.42683 1.32001 9 1.33442H7C6.57316 1.32001 6.15804 1.47543 5.84561 1.76661C5.53319 2.05779 5.34897 2.46096 5.33333 2.88775V4.00108H1.99999C1.82318 4.00108 1.65361 4.07132 1.52859 4.19634C1.40357 4.32137 1.33333 4.49094 1.33333 4.66775C1.33333 4.84456 1.40357 5.01413 1.52859 5.13915C1.65361 5.26418 1.82318 5.33441 1.99999 5.33441H2.66666V12.6677C2.66666 13.1982 2.87738 13.7069 3.25245 14.082C3.62752 14.457 4.13623 14.6677 4.66666 14.6677H11.3333C11.8638 14.6677 12.3725 14.457 12.7475 14.082C13.1226 13.7069 13.3333 13.1982 13.3333 12.6677V5.33441H14C14.1768 5.33441 14.3464 5.26418 14.4714 5.13915C14.5964 5.01413 14.6667 4.84456 14.6667 4.66775C14.6667 4.49094 14.5964 4.32137 14.4714 4.19634C14.3464 4.07132 14.1768 4.00108 14 4.00108ZM6.66666 2.88775C6.66666 2.78108 6.80666 2.66775 7 2.66775H9C9.19333 2.66775 9.33333 2.78108 9.33333 2.88775V4.00108H6.66666V2.88775ZM12 12.6677C12 12.8446 11.9298 13.0141 11.8047 13.1392C11.6797 13.2642 11.5101 13.3344 11.3333 13.3344H4.66666C4.48985 13.3344 4.32028 13.2642 4.19526 13.1392C4.07023 13.0141 3.99999 12.8446 3.99999 12.6677V5.33441H12V12.6677Z"
              fill="white"/>
    </g>
    <g id="edit">
        <path d="M12.6667 13.3345H3.33334C3.15653 13.3345 2.98696 13.4047 2.86193 13.5297C2.73691 13.6548 2.66667 13.8243 2.66667 14.0011C2.66667 14.178 2.73691 14.3475 2.86193 14.4725C2.98696 14.5976 3.15653 14.6678 3.33334 14.6678H12.6667C12.8435 14.6678 13.0131 14.5976 13.1381 14.4725C13.2631 14.3475 13.3333 14.178 13.3333 14.0011C13.3333 13.8243 13.2631 13.6548 13.1381 13.5297C13.0131 13.4047 12.8435 13.3345 12.6667 13.3345Z" fill="white"/>
        <path d="M3.33333 12.0012H3.39333L6.17333 11.7479C6.47786 11.7175 6.76269 11.5834 6.98 11.3679L12.98 5.36787C13.2129 5.12185 13.3387 4.79355 13.33 4.4549C13.3212 4.11625 13.1786 3.79488 12.9333 3.56121L11.1067 1.73454C10.8683 1.5106 10.5559 1.38211 10.2289 1.37351C9.90191 1.3649 9.58319 1.47679 9.33333 1.68787L3.33333 7.68787C3.11784 7.90518 2.98367 8.19001 2.95333 8.49454L2.66667 11.2745C2.65769 11.3722 2.67036 11.4706 2.70377 11.5628C2.73719 11.655 2.79053 11.7387 2.86 11.8079C2.92229 11.8697 2.99617 11.9185 3.0774 11.9517C3.15862 11.9849 3.2456 12.0017 3.33333 12.0012ZM10.18 2.66787L12 4.48787L10.6667 5.78787L8.88 4.00121L10.18 2.66787ZM4.24667 8.60787L8 4.88121L9.8 6.68121L6.06667 10.4145L4.06667 10.6012L4.24667 8.60787Z" fill="white"/>
    </g>
    <g id="check">
        <path
                d="M16 0H2a2 2 0 00-2 2v14a2 2 0 002 2h14a2 2 0 002-2V2a2 2 0 00-2-2zM7 14L2 9l1.41-1.41L7 11.17l7.59-7.59L16 5l-9 9z"
                fill="currentColor"
        />
    </g>
    <g id="starLike">
        <path id="Vector" d="M11.7067 14C11.6 14.0004 11.4949 13.9753 11.4 13.9266L7.99999 12.1466L4.59999 13.9266C4.48959 13.9847 4.36511 14.0106 4.24071 14.0014C4.11631 13.9923 3.99698 13.9484 3.89628 13.8748C3.79558 13.8012 3.71755 13.7008 3.67107 13.585C3.62459 13.4693 3.61151 13.3428 3.63333 13.22L4.29999 9.46664L1.55333 6.79997C1.46763 6.71446 1.40684 6.60722 1.37748 6.48977C1.34812 6.37232 1.35129 6.24909 1.38666 6.13331C1.4253 6.01482 1.49638 5.90954 1.59183 5.82941C1.68728 5.74928 1.80328 5.69751 1.92666 5.67997L5.72666 5.12664L7.39999 1.70664C7.45458 1.59393 7.53982 1.49887 7.64594 1.43236C7.75205 1.36584 7.87476 1.33057 7.99999 1.33057C8.12523 1.33057 8.24794 1.36584 8.35405 1.43236C8.46017 1.49887 8.5454 1.59393 8.59999 1.70664L10.2933 5.11997L14.0933 5.67331C14.2167 5.69084 14.3327 5.74262 14.4282 5.82275C14.5236 5.90288 14.5947 6.00816 14.6333 6.12664C14.6687 6.24242 14.6719 6.36565 14.6425 6.4831C14.6131 6.60055 14.5524 6.70779 14.4667 6.79331L11.72 9.45997L12.3867 13.2133C12.4105 13.3383 12.398 13.4675 12.3507 13.5856C12.3035 13.7037 12.2234 13.8059 12.12 13.88C11.9993 13.9646 11.8539 14.0068 11.7067 14Z" fill="#E6AC39"/>
    </g>
    <g id="starDislike">
        <path id="Vector" d="M11.7067 14C11.6 14.0004 11.4949 13.9753 11.4 13.9266L7.99999 12.1466L4.59999 13.9266C4.48959 13.9847 4.36511 14.0106 4.24071 14.0014C4.11631 13.9923 3.99698 13.9484 3.89628 13.8748C3.79558 13.8012 3.71755 13.7008 3.67107 13.585C3.62459 13.4693 3.61151 13.3428 3.63333 13.22L4.29999 9.46664L1.55333 6.79997C1.46763 6.71446 1.40684 6.60722 1.37748 6.48977C1.34812 6.37232 1.35129 6.24909 1.38666 6.13331C1.4253 6.01482 1.49638 5.90954 1.59183 5.82941C1.68728 5.74928 1.80328 5.69751 1.92666 5.67997L5.72666 5.12664L7.39999 1.70664C7.45458 1.59393 7.53982 1.49887 7.64594 1.43236C7.75205 1.36584 7.87476 1.33057 7.99999 1.33057C8.12523 1.33057 8.24794 1.36584 8.35405 1.43236C8.46017 1.49887 8.5454 1.59393 8.59999 1.70664L10.2933 5.11997L14.0933 5.67331C14.2167 5.69084 14.3327 5.74262 14.4282 5.82275C14.5236 5.90288 14.5947 6.00816 14.6333 6.12664C14.6687 6.24242 14.6719 6.36565 14.6425 6.4831C14.6131 6.60055 14.5524 6.70779 14.4667 6.79331L11.72 9.45997L12.3867 13.2133C12.4105 13.3383 12.398 13.4675 12.3507 13.5856C12.3035 13.7037 12.2234 13.8059 12.12 13.88C11.9993 13.9646 11.8539 14.0068 11.7067 14ZM7.99999 10.7333C8.10686 10.7306 8.21258 10.7559 8.30666 10.8066L10.82 12.14L10.34 9.33331C10.3214 9.22614 10.3293 9.11604 10.363 9.01262C10.3967 8.9092 10.4551 8.8156 10.5333 8.73997L12.5333 6.78664L9.73333 6.37331C9.63065 6.35263 9.53429 6.30806 9.45205 6.2432C9.36982 6.17834 9.30402 6.09501 9.25999 5.99997L7.99999 3.49997L6.73999 5.99997C6.69176 6.09578 6.62112 6.17853 6.53408 6.2412C6.44703 6.30387 6.34615 6.34462 6.23999 6.35997L3.43999 6.77331L5.43999 8.72664C5.51818 8.80226 5.57667 8.89587 5.61037 8.99929C5.64407 9.10271 5.65195 9.21281 5.63333 9.31997L5.15333 12.0933L7.66666 10.76C7.77316 10.7204 7.88856 10.7112 7.99999 10.7333Z" fill="#E6AC39"/>
    </g>
    <g id="corner">
        <path d="M9.77078 7.25718C9.77101 7.374 9.73032 7.48722 9.65578 7.57718C9.61381 7.62781 9.56226 7.66966 9.50408 7.70033C9.44591 7.73101 9.38226 7.74991 9.31677 7.75594C9.25128 7.76198 9.18525 7.75504 9.12244 7.73552C9.05964 7.716 9.00131 7.68428 8.95078 7.64218L6.27078 5.40218L3.58578 7.56218C3.53464 7.60371 3.47579 7.63473 3.41262 7.65344C3.34945 7.67216 3.28321 7.6782 3.21769 7.67123C3.15218 7.66426 3.08869 7.64442 3.03087 7.61283C2.97305 7.58124 2.92204 7.53854 2.88078 7.48718C2.83526 7.43544 2.80093 7.37486 2.77994 7.30923C2.75894 7.2436 2.75174 7.17434 2.75878 7.10579C2.76583 7.03724 2.78696 6.97089 2.82086 6.9109C2.85476 6.85091 2.9007 6.79857 2.95578 6.75718L5.95578 4.34218C6.04525 4.26864 6.15747 4.22843 6.27328 4.22843C6.3891 4.22843 6.50132 4.26864 6.59078 4.34218L9.59078 6.84218C9.65129 6.89234 9.69912 6.95605 9.7304 7.02816C9.76167 7.10026 9.77551 7.17872 9.77078 7.25718Z" fill="white"/>
    </g>
</svg>