<svg width="120" height="120" viewBox="0 0 120 120" fill="none" xmlns="http://www.w3.org/2000/svg">
        <g id="log-out">
                <path d="M4.66666 3.99996C4.84347 3.99996 5.01304 3.92972 5.13806 3.8047C5.26309 3.67967 5.33332 3.5101 5.33332 3.33329C5.33332 3.15648 5.26309 2.98691 5.13806 2.86189C5.01304 2.73686 4.84347 2.66663 4.66666 2.66663H3.33332C3.15651 2.66663 2.98694 2.73686 2.86192 2.86189C2.73689 2.98691 2.66666 3.15648 2.66666 3.33329V12.6666C2.66666 12.8434 2.73689 13.013 2.86192 13.138C2.98694 13.2631 3.15651 13.3333 3.33332 13.3333H4.66666C4.84347 13.3333 5.01304 13.2631 5.13806 13.138C5.26309 13.013 5.33332 12.8434 5.33332 12.6666C5.33332 12.4898 5.26309 12.3202 5.13806 12.1952C5.01304 12.0702 4.84347 12 4.66666 12H3.99999V3.99996H4.66666Z"
                      fill="white"/>
                <path d="M13.88 7.61338L12 4.94672C11.898 4.80299 11.7433 4.70548 11.5697 4.67549C11.396 4.64551 11.2176 4.6855 11.0733 4.78672C11.0012 4.83724 10.9399 4.90154 10.8927 4.97592C10.8456 5.05029 10.8137 5.13326 10.7988 5.22004C10.784 5.30681 10.7864 5.39568 10.8061 5.4815C10.8257 5.56732 10.8622 5.64839 10.9133 5.72005L12.06 7.33338H6.66667C6.48986 7.33338 6.32029 7.40362 6.19526 7.52864C6.07024 7.65367 6 7.82324 6 8.00005C6 8.17686 6.07024 8.34643 6.19526 8.47145C6.32029 8.59648 6.48986 8.66672 6.66667 8.66672H12L10.8 10.2667C10.7475 10.3368 10.7093 10.4165 10.6875 10.5013C10.6658 10.5861 10.661 10.6743 10.6734 10.761C10.6857 10.8477 10.7151 10.931 10.7597 11.0064C10.8043 11.0817 10.8633 11.1475 10.9333 11.2C11.0487 11.2866 11.1891 11.3334 11.3333 11.3334C11.4368 11.3334 11.5389 11.3093 11.6315 11.263C11.724 11.2167 11.8046 11.1495 11.8667 11.0667L13.8667 8.40005C13.952 8.28729 13.9994 8.15031 14.0018 8.00889C14.0041 7.86748 13.9615 7.72897 13.88 7.61338Z"
                      fill="white"/>
        </g>
        <g id="magnifier">
                <path id="Vector"
                      d="M17.2583 16.075L14.425 13.25C15.3392 12.0854 15.8352 10.6472 15.8333 9.16667C15.8333 7.84813 15.4423 6.5592 14.7098 5.46287C13.9773 4.36654 12.9361 3.51206 11.7179 3.00747C10.4997 2.50289 9.15927 2.37087 7.86607 2.6281C6.57286 2.88534 5.38497 3.52027 4.45262 4.45262C3.52027 5.38497 2.88534 6.57286 2.6281 7.86607C2.37087 9.15927 2.50289 10.4997 3.00747 11.7179C3.51206 12.9361 4.36654 13.9773 5.46287 14.7098C6.5592 15.4423 7.84813 15.8333 9.16667 15.8333C10.6472 15.8352 12.0854 15.3392 13.25 14.425L16.075 17.2583C16.1525 17.3364 16.2446 17.3984 16.3462 17.4407C16.4477 17.4831 16.5567 17.5048 16.6667 17.5048C16.7767 17.5048 16.8856 17.4831 16.9871 17.4407C17.0887 17.3984 17.1809 17.3364 17.2583 17.2583C17.3364 17.1809 17.3984 17.0887 17.4407 16.9871C17.4831 16.8856 17.5048 16.7767 17.5048 16.6667C17.5048 16.5567 17.4831 16.4477 17.4407 16.3462C17.3984 16.2446 17.3364 16.1525 17.2583 16.075ZM4.16667 9.16667C4.16667 8.17776 4.45991 7.21106 5.00932 6.38882C5.55873 5.56657 6.33962 4.92571 7.25325 4.54727C8.16688 4.16883 9.17222 4.06982 10.1421 4.26274C11.112 4.45567 12.0029 4.93187 12.7022 5.63114C13.4015 6.3304 13.8777 7.22131 14.0706 8.19122C14.2635 9.16112 14.1645 10.1665 13.7861 11.0801C13.4076 11.9937 12.7668 12.7746 11.9445 13.324C11.1223 13.8734 10.1556 14.1667 9.16667 14.1667C7.84059 14.1667 6.56882 13.6399 5.63114 12.7022C4.69345 11.7645 4.16667 10.4928 4.16667 9.16667Z"
                      fill="#808080"/>
        </g>
        <g id="eye">
                <path id="Vector"
                      d="M18.225 9.58334C17.6917 8.65834 14.7583 4.01667 9.77501 4.16667C5.16667 4.28334 2.50001 8.33334 1.77501 9.58334C1.70187 9.71002 1.66336 9.85372 1.66336 10C1.66336 10.1463 1.70187 10.29 1.77501 10.4167C2.30001 11.325 5.10834 15.8333 10.0167 15.8333H10.225C14.8333 15.7167 17.5083 11.6667 18.225 10.4167C18.2981 10.29 18.3367 10.1463 18.3367 10C18.3367 9.85372 18.2981 9.71002 18.225 9.58334ZM10.1833 14.1667C6.59167 14.25 4.25001 11.175 3.51667 10C4.35001 8.65834 6.52501 5.91667 9.85834 5.83334C13.4333 5.74167 15.7833 8.82501 16.525 10C15.6667 11.3417 13.5167 14.0833 10.1833 14.1667Z"
                      fill="white"/>
                <path id="Vector_2"
                      d="M10 7.08334C9.42315 7.08334 8.85924 7.2544 8.3796 7.57489C7.89995 7.89538 7.52612 8.3509 7.30536 8.88385C7.08461 9.4168 7.02685 10.0032 7.13939 10.569C7.25193 11.1348 7.52971 11.6545 7.93762 12.0624C8.34552 12.4703 8.86522 12.7481 9.431 12.8606C9.99678 12.9732 10.5832 12.9154 11.1162 12.6947C11.6491 12.4739 12.1046 12.1001 12.4251 11.6204C12.7456 11.1408 12.9167 10.5769 12.9167 10C12.9167 9.22646 12.6094 8.4846 12.0624 7.93762C11.5154 7.39063 10.7736 7.08334 10 7.08334ZM10 11.25C9.75279 11.25 9.51111 11.1767 9.30555 11.0393C9.09999 10.902 8.93977 10.7068 8.84516 10.4784C8.75055 10.25 8.7258 9.99862 8.77403 9.75615C8.82226 9.51367 8.94131 9.29094 9.11613 9.11613C9.29094 8.94131 9.51367 8.82226 9.75615 8.77403C9.99862 8.7258 10.25 8.75055 10.4784 8.84516C10.7068 8.93977 10.902 9.09999 11.0393 9.30555C11.1767 9.51111 11.25 9.75278 11.25 10C11.25 10.3315 11.1183 10.6495 10.8839 10.8839C10.6495 11.1183 10.3315 11.25 10 11.25Z"
                      fill="white"/>
        </g>
        <g id="cross">
                <path id="Vector" d="M8.94 7.99998L11.8067 5.13998C11.9322 5.01445 12.0027 4.84418 12.0027 4.66665C12.0027 4.48911 11.9322 4.31885 11.8067 4.19331C11.6811 4.06778 11.5109 3.99725 11.3333 3.99725C11.1558 3.99725 10.9855 4.06778 10.86 4.19331L8 7.05998L5.14 4.19331C5.01446 4.06778 4.8442 3.99725 4.66667 3.99725C4.48913 3.99725 4.31887 4.06778 4.19333 4.19331C4.0678 4.31885 3.99727 4.48911 3.99727 4.66665C3.99727 4.84418 4.0678 5.01445 4.19333 5.13998L7.06 7.99998L4.19333 10.86C4.13085 10.922 4.08125 10.9957 4.04741 11.0769C4.01356 11.1582 3.99613 11.2453 3.99613 11.3333C3.99613 11.4213 4.01356 11.5085 4.04741 11.5897C4.08125 11.6709 4.13085 11.7447 4.19333 11.8066C4.25531 11.8691 4.32904 11.9187 4.41028 11.9526C4.49152 11.9864 4.57866 12.0038 4.66667 12.0038C4.75467 12.0038 4.84181 11.9864 4.92305 11.9526C5.00429 11.9187 5.07802 11.8691 5.14 11.8066L8 8.93998L10.86 11.8066C10.922 11.8691 10.9957 11.9187 11.0769 11.9526C11.1582 11.9864 11.2453 12.0038 11.3333 12.0038C11.4213 12.0038 11.5085 11.9864 11.5897 11.9526C11.671 11.9187 11.7447 11.8691 11.8067 11.8066C11.8692 11.7447 11.9187 11.6709 11.9526 11.5897C11.9864 11.5085 12.0039 11.4213 12.0039 11.3333C12.0039 11.2453 11.9864 11.1582 11.9526 11.0769C11.9187 10.9957 11.8692 10.922 11.8067 10.86L8.94 7.99998Z" fill="white"/>
        </g>
        <g id="incubator">
                        <path d="M70.9892 24.716C69.7047 24.716 68.5403 24.4392 67.4959 23.8856C66.4636 23.32 65.6473 22.5438 65.047 21.5569C64.4588 20.5581 64.1647 19.4329 64.1647 18.1813C64.1647 16.9297 64.4588 15.8105 65.047 14.8237C65.6473 13.8249 66.4636 13.0487 67.4959 12.4951C68.5403 11.9295 69.7107 11.6467 71.0072 11.6467C72.0996 11.6467 73.0839 11.8392 73.9602 12.2243C74.8485 12.6094 75.5928 13.163 76.193 13.885L74.3203 15.618C73.468 14.6312 72.4117 14.1378 71.1512 14.1378C70.3709 14.1378 69.6747 14.3123 69.0625 14.6613C68.4503 14.9982 67.9701 15.4736 67.622 16.0873C67.2858 16.7011 67.1178 17.3991 67.1178 18.1813C67.1178 18.9635 67.2858 19.6615 67.622 20.2753C67.9701 20.889 68.4503 21.3704 69.0625 21.7194C69.6747 22.0564 70.3709 22.2248 71.1512 22.2248C72.4117 22.2248 73.468 21.7254 74.3203 20.7266L76.193 22.4595C75.5928 23.1936 74.8485 23.7532 73.9602 24.1383C73.0719 24.5234 72.0815 24.716 70.9892 24.716Z" fill="white"/>
                        <path d="M83.6574 24.716C81.8567 24.716 80.4522 24.2165 79.4439 23.2177C78.4475 22.2188 77.9493 20.7928 77.9493 18.9395V11.8633H80.8664V18.8312C80.8664 21.0936 81.8027 22.2248 83.6754 22.2248C84.5877 22.2248 85.2839 21.9541 85.7641 21.4125C86.2443 20.8589 86.4844 19.9985 86.4844 18.8312V11.8633H89.3654V18.9395C89.3654 20.7928 88.8612 22.2188 87.8529 23.2177C86.8565 24.2165 85.458 24.716 83.6574 24.716Z" fill="white"/>
                        <path d="M101.503 17.9286C102.224 18.1572 102.788 18.5423 103.196 19.0839C103.604 19.6134 103.808 20.2693 103.808 21.0515C103.808 22.1587 103.376 23.0131 102.512 23.6148C101.659 24.2045 100.411 24.4993 98.7663 24.4993H92.248V11.8633H98.4062C99.9427 11.8633 101.119 12.1581 101.935 12.7478C102.764 13.3375 103.178 14.1378 103.178 15.1486C103.178 15.7624 103.028 16.31 102.728 16.7913C102.44 17.2727 102.031 17.6518 101.503 17.9286ZM95.147 14.0656V17.0441H98.046C98.7663 17.0441 99.3125 16.9177 99.6846 16.665C100.057 16.4123 100.243 16.0392 100.243 15.5458C100.243 15.0524 100.057 14.6853 99.6846 14.4446C99.3125 14.1919 98.7663 14.0656 98.046 14.0656H95.147ZM98.5502 22.297C99.3185 22.297 99.8947 22.1707 100.279 21.918C100.675 21.6652 100.873 21.2741 100.873 20.7446C100.873 19.6976 100.099 19.1741 98.5502 19.1741H95.147V22.297H98.5502Z" fill="white"/>
                        <path d="M114.317 21.7916H108.465L107.349 24.4993H104.36L109.978 11.8633H112.859L118.495 24.4993H115.434L114.317 21.7916ZM113.399 19.5713L111.4 14.7335L109.402 19.5713H113.399Z" fill="white"/>
                        <path d="M121.781 14.2461H117.747V11.8633H128.731V14.2461H124.698V24.4993H121.781V14.2461Z" fill="white"/>
                        <path d="M136.229 24.716C134.92 24.716 133.738 24.4331 132.682 23.8675C131.637 23.3019 130.815 22.5257 130.215 21.5389C129.627 20.54 129.332 19.4208 129.332 18.1813C129.332 16.9418 129.627 15.8286 130.215 14.8418C130.815 13.8429 131.637 13.0607 132.682 12.4951C133.738 11.9295 134.92 11.6467 136.229 11.6467C137.537 11.6467 138.714 11.9295 139.758 12.4951C140.802 13.0607 141.625 13.8429 142.225 14.8418C142.825 15.8286 143.125 16.9418 143.125 18.1813C143.125 19.4208 142.825 20.54 142.225 21.5389C141.625 22.5257 140.802 23.3019 139.758 23.8675C138.714 24.4331 137.537 24.716 136.229 24.716ZM136.229 22.2248C136.973 22.2248 137.645 22.0564 138.246 21.7194C138.846 21.3704 139.314 20.889 139.65 20.2753C139.998 19.6615 140.172 18.9635 140.172 18.1813C140.172 17.3991 139.998 16.7011 139.65 16.0873C139.314 15.4736 138.846 14.9982 138.246 14.6613C137.645 14.3123 136.973 14.1378 136.229 14.1378C135.485 14.1378 134.812 14.3123 134.212 14.6613C133.612 14.9982 133.138 15.4736 132.79 16.0873C132.454 16.7011 132.285 17.3991 132.285 18.1813C132.285 18.9635 132.454 19.6615 132.79 20.2753C133.138 20.889 133.612 21.3704 134.212 21.7194C134.812 22.0564 135.485 22.2248 136.229 22.2248Z" fill="white"/>
                        <path d="M153.348 24.4993L150.918 20.9793H150.774H148.235V24.4993H145.318V11.8633H150.774C151.89 11.8633 152.856 12.0498 153.673 12.4229C154.501 12.7959 155.137 13.3254 155.581 14.0114C156.025 14.6974 156.247 15.5097 156.247 16.4484C156.247 17.387 156.019 18.1994 155.563 18.8853C155.119 19.5592 154.483 20.0767 153.655 20.4377L156.482 24.4993H153.348ZM153.294 16.4484C153.294 15.7383 153.066 15.1968 152.61 14.8237C152.154 14.4386 151.488 14.2461 150.611 14.2461H148.235V18.6506H150.611C151.488 18.6506 152.154 18.4581 152.61 18.073C153.066 17.6879 153.294 17.1463 153.294 16.4484Z" fill="white"/>
                        <path d="M0 11.8784H2.91247V24.4724H0V11.8784Z" fill="white"/>
                        <path d="M8.50595 14.2532H4.47883V11.8784H15.4455V14.2532H11.4184V24.4724H8.50595V14.2532Z" fill="white"/>
                        <path d="M33.7412 11.8784H36.6578V24.4724H33.7412V11.8784Z" fill="white"/>
                        <path d="M51.2066 11.8784V24.4724H48.8122L42.529 16.826V24.4724H39.6485V11.8784H42.061L48.3261 19.5248V11.8784H51.2066Z" fill="white"/>
                        <path fill-rule="evenodd" clip-rule="evenodd" d="M34.9871 6.53499C36.0696 6.53499 36.9474 7.41279 36.9474 8.49538C36.9474 9.57798 36.0696 10.4558 34.9871 10.4558C33.9045 10.4558 33.0266 9.57798 33.0266 8.49538C33.0266 7.41279 33.9045 6.53499 34.9871 6.53499Z" fill="#FF0808"/>
                        <path fill-rule="evenodd" clip-rule="evenodd" d="M19.4921 16.0372C20.6078 16.0372 21.512 16.9147 21.512 17.9976C21.512 19.0805 20.6078 19.958 19.4921 19.958C18.3765 19.958 17.4724 19.0805 17.4724 17.9976C17.4724 16.9147 18.3765 16.0372 19.4921 16.0372Z" fill="white"/>
                        <path fill-rule="evenodd" clip-rule="evenodd" d="M42.4778 34.5C51.5905 34.5 58.9778 27.1127 58.9778 18C58.9778 8.8873 51.5905 1.5 42.4778 1.5C33.3651 1.5 25.9778 8.8873 25.9778 18C25.9778 27.1127 33.3651 34.5 42.4778 34.5ZM42.4778 36C52.419 36 60.4778 27.9411 60.4778 18C60.4778 8.05887 52.419 0 42.4778 0C32.5367 0 24.4778 8.05887 24.4778 18C24.4778 27.9411 32.5367 36 42.4778 36Z" fill="white"/>
        </g>
    <g id="line">
        <line x1="0.5" y1="0.5" x2="32.5" y2="0.500003" stroke="white" stroke-linecap="round" stroke-dasharray="3 3"/>
    </g>
</svg>